<?xml version="1.0" encoding="UTF-8"?>
<svg id="Layer_1" xmlns="http://www.w3.org/2000/svg" version="1.1" viewBox="0 0 32 32">
  <!-- Generator: Adobe Illustrator 29.7.1, SVG Export Plug-In . SVG Version: 2.1.1 Build 8)  -->
  <defs>
    <style>
      .st0 {
        fill: #fff;
      }

      .st1 {
        fill: #007bff;
      }
    </style>
  </defs>
  <circle class="st1" cx="16" cy="16" r="15"/>
  <g>
    <path class="st0" d="M11,23.09c-.9,0-1.71-.16-2.44-.47-.73-.32-1.33-.77-1.83-1.36-.49-.59-.84-1.29-1.04-2.11l2.55-.67c.17.67.5,1.19.97,1.56s1.07.55,1.78.55c.52,0,.93-.11,1.21-.33s.43-.53.43-.92v-.06c0-.34-.13-.63-.38-.86-.25-.23-.7-.47-1.34-.72l-1.75-.69c-1.82-.71-2.73-1.91-2.73-3.58v-.04c0-.75.18-1.41.55-1.98.37-.57.88-1.01,1.53-1.33.65-.32,1.42-.48,2.29-.48,1.18,0,2.16.27,2.92.81.77.54,1.31,1.34,1.62,2.4l-2.53.72c-.28-.95-.95-1.42-2.02-1.42-.5,0-.89.1-1.18.31s-.44.49-.44.84v.05c0,.29.1.53.31.73.21.2.57.4,1.08.6l1.75.69c1.06.42,1.83.95,2.32,1.58.49.63.74,1.42.74,2.37v.07c0,.75-.18,1.41-.55,1.97-.37.56-.88,1-1.53,1.31-.66.31-1.43.47-2.31.47Z"/>
    <path class="st0" d="M16.85,22.79v-12.89h2.77v12.89h-2.77ZM23.39,22.79l-3.85-6.47v-.07l3.7-6.35h3.14l-4.16,6.83v-1.06l4.35,7.12h-3.18Z"/>
  </g>
</svg>